inDegrees=no
num_controls=7
num_derivatives=13
num_iterations=126
num_multipliers=7
num_parameters=0
num_slacks=7
num_states=26
objective=0.476919
objective_accelerations=0.044659
objective_balance=0.003660
objective_effort=0.040776
objective_height=0.382164
objective_ligament=0.005660
solver_duration=1723.033424
status=Solve_Succeeded
success=true
DataType=double
version=3
OpenSimVersion=4.5
endheader
time	/jointset/ground_pelvis/pelvis_tilt/value	/jointset/ground_pelvis/pelvis_tx/value	/jointset/ground_pelvis/pelvis_ty/value	/jointset/hip_l/hip_flexion_l/value	/jointset/hip_l/hip_adduction_l/value	/jointset/hip_l/hip_rotation_l/value	/jointset/back/lumbar_extension/value	/jointset/patellofemoral_l/patellar_flexion_l/value	/jointset/knee_l/knee_flexion_l/value	/jointset/knee_l/knee_adduction_l/value	/jointset/knee_l/knee_rotation_l/value	/jointset/ankle_l/ankle_angle_l/value	/jointset/subtalar_l/subtalar_angle_l/value	/jointset/ground_pelvis/pelvis_tilt/speed	/jointset/ground_pelvis/pelvis_tx/speed	/jointset/ground_pelvis/pelvis_ty/speed	/jointset/hip_l/hip_flexion_l/speed	/jointset/hip_l/hip_adduction_l/speed	/jointset/hip_l/hip_rotation_l/speed	/jointset/back/lumbar_extension/speed	/jointset/patellofemoral_l/patellar_flexion_l/speed	/jointset/knee_l/knee_flexion_l/speed	/jointset/knee_l/knee_adduction_l/speed	/jointset/knee_l/knee_rotation_l/speed	/jointset/ankle_l/ankle_angle_l/speed	/jointset/subtalar_l/subtalar_angle_l/speed	/forceset/tau_hip_flexion_l	/forceset/tau_hip_adduction_l	/forceset/tau_hip_rotation_l	/forceset/tau_knee_flexion_l	/forceset/tau_ankle_angle_l	/forceset/tau_subtalar_angle_l	/forceset/tau_lumbar_extension	lambda_cid13_p0	lambda_cid13_p1	lambda_cid13_p2	lambda_cid13_p3	lambda_cid13_p4	lambda_cid13_p5	lambda_cid14_p0	/jointset/ground_pelvis/pelvis_tilt/accel	/jointset/ground_pelvis/pelvis_tx/accel	/jointset/ground_pelvis/pelvis_ty/accel	/jointset/hip_l/hip_flexion_l/accel	/jointset/hip_l/hip_adduction_l/accel	/jointset/hip_l/hip_rotation_l/accel	/jointset/back/lumbar_extension/accel	/jointset/patellofemoral_l/patellar_flexion_l/accel	/jointset/knee_l/knee_flexion_l/accel	/jointset/knee_l/knee_adduction_l/accel	/jointset/knee_l/knee_rotation_l/accel	/jointset/ankle_l/ankle_angle_l/accel	/jointset/subtalar_l/subtalar_angle_l/accel	gamma_cid13_p0	gamma_cid13_p1	gamma_cid13_p2	gamma_cid13_p3	gamma_cid13_p4	gamma_cid13_p5	gamma_cid14_p0
1	-0.1118573599378318	-0.06003462670644114	0.6791198510906254	1.338599814037148	-0.3274490252499689	0.07393798173077845	-0.9599292255575491	1.40619160569522	1.40619160569517	-0.06388208622691963	-0.1745108403603517	0.2777211166493715	0.06503399090935807	0.1033161098041453	0.02538811384355487	0.07175261703727076	-0.3029025935465885	-0.007693329073211189	-0.06618175820434531	-0.0002938689597642899	-0.1652660156126783	-0.1652660156126604	-0.002993494236072037	6.905576498340347e-06	0.02516925898404719	0.002013525327080371	-0.3756930769955175	0.01668924763448376	0.001563839006912502	-0.3789563598193292	0.04223286094103006	0.02429222345872294	0.4277959779637263	-37.88328259231005	-2.750627319507383	-1.3480881116992	13.31218730650131	-801.848518273978	-68.39682071613575	-0.04145870047863199	0.8404313135187184	-0.0005169748345054256	1.575971954195083	-5.072987648382608	-0.1337045598474514	-1.672418063696612	0.0225829877897154	-5.053796350962748	-5.053796350962701	-0.3666938925186279	-0.01019312924378804	-1.178612829894638	-0.6691592884714767	-8.436343179346346e-09	1.938001075407625e-08	6.714396083902607e-08	4.435957592538141e-09	-2.289726061136463e-08	1.299409133128284e-07	-1.763285975997671e-08
1.01	-0.1107827182898816	-0.05978075275951866	0.6799158365721349	1.335318506411256	-0.3275318765216826	0.07319176417063433	-0.9599303484070064	1.404286896680384	1.404286896680344	-0.06392837507686537	-0.1745103598057154	0.2779139344860292	0.06502172561783064	0.1115952030249677	0.02538944081210412	0.0874206467825257	-0.3532870781052878	-0.008866395166456905	-0.08305055788804662	9.129204736886508e-05	-0.2156412261926048	-0.2156412261925588	-0.006254918943238289	8.55044003514905e-05	0.01337648250823862	-0.004460511422595186	-0.3744985638634888	0.01682300298570104	0.001483160097414076	-0.3785868283274322	0.04211669310382711	0.02444889798948545	0.4270065204048772	-37.8549706404683	-2.839822116013273	-1.315370722076783	13.21211746528105	-801.0082227112233	-68.47399794658125	-0.04149429419394492	0.8190934227738366	0.0008737605776399378	1.558638131218387	-5.010403856981443	-0.1075364460562862	-1.692449856192282	0.04978162132003828	-5.024194383826661	-5.024194383822404	-0.3044749000861303	0.01635475406808253	-1.182283637754959	-0.6356281916125835	-1.34311753997204e-08	1.113004619521981e-08	9.678130265662909e-08	7.158588770771324e-09	-2.736067280530814e-08	1.492111934902579e-07	-2.42005165996987e-08
1.02	-0.1096257966904422	-0.05952678229733497	0.6808677862804022	1.331535508940302	-0.3276261442167294	0.07227719082655483	-0.9599269598547674	1.401879473365284	1.401879473365254	-0.06400699980193496	-0.1745091995896679	0.2779882898416626	0.06494489949412674	0.1197721001021813	0.0254074168957969	0.1029454623888516	-0.403240562558707	-0.009976613739424033	-0.09985291499116822	0.0006084116202807592	-0.2658088756652949	-0.2658088756652187	-0.009460669261226521	0.0001428378589313965	0.001476762779190264	-0.01089864110815221	-0.3733040507314623	0.01695675833690348	0.001402481187907579	-0.3782172968355376	0.0420005252666199	0.02460557252022663	0.4262170628460286	-37.83797898217071	-2.925778374556546	-1.284604898295302	13.16927012393505	-800.3130479967476	-68.52646596022936	-0.04153065072293693	0.8199920847969925	0.002812848194195252	1.547329126409263	-4.986787627326601	-0.1211350557917366	-1.659129547580669	0.04897470094518801	-5.012284129515475	-5.012284129515005	-0.3555590146830226	-0.01444620229843977	-1.200001480542602	-0.6619778756477733	-2.080321001001297e-08	2.767196694198664e-09	1.248629406697857e-07	1.496319247585263e-08	-3.459201317996647e-08	1.673664373694688e-07	-3.037161609064103e-08
1.03	-0.1083879782425553	-0.05927230376767507	0.6819742784447308	1.327255175516526	-0.3277311978534492	0.07119500517546722	-0.9599160156132852	1.398971392125766	1.398971392125725	-0.06411748762318964	-0.1745075534920469	0.2779434204809537	0.06480402348338622	0.1277383819953399	0.02551575620102228	0.1183302951477412	-0.4527506609833559	-0.01102483288113334	-0.1165689212618742	0.001775331558217401	-0.3157754577810455	-0.3157754577809418	-0.01263466806678069	0.0001813945881233261	-0.0104379625623448	-0.01725736516530684	-0.3734477827445027	0.01723301281018031	0.001285449465344088	-0.3775093983665821	0.04195115080474009	0.02483259122877408	0.4270687498413885	-37.83157142801254	-3.049884711609755	-1.236959428551987	12.65874321632981	-800.517998160978	-68.5618283552586	-0.04157444470334157	0.7769623707029889	0.01896915795258229	1.530650636938733	-4.921805721268957	-0.09528783701757851	-1.675570945510991	0.1797848686830244	-4.984050738878049	-4.984050738874207	-0.2980050062959913	0.0122940922682176	-1.185308641535217	-0.6199572804772182	-2.819950178754962e-08	-5.59680469398743e-09	1.529287041543254e-07	2.281965304345282e-08	-4.185159771973414e-08	1.855103033272692e-07	-3.653866907802438e-08
